<svg width="13" height="12" viewBox="0 0 13 12" fill="none" xmlns="http://www.w3.org/2000/svg">
<path d="M11.7326 5.32699L10.8192 4.41362C10.663 4.25739 10.5368 3.95093 10.5368 3.7346V2.43666C10.5368 1.90786 10.1042 1.47521 9.57536 1.47521H8.28342C8.0671 1.47521 7.76064 1.34902 7.6044 1.19279L6.69103 0.279419C6.31847 -0.0931398 5.70555 -0.0931398 5.333 0.279419L4.40761 1.19279C4.25739 1.34902 3.95093 1.47521 3.72859 1.47521H2.43666C1.90786 1.47521 1.47521 1.90786 1.47521 2.43666V3.72859C1.47521 3.94492 1.34902 4.25138 1.19279 4.40761L0.279419 5.32098C-0.0931397 5.69354 -0.0931397 6.30646 0.279419 6.67902L1.19279 7.59239C1.34902 7.74862 1.47521 8.05508 1.47521 8.27141V9.56334C1.47521 10.0921 1.90786 10.5248 2.43666 10.5248H3.72859C3.94492 10.5248 4.25138 10.651 4.40761 10.8072L5.32098 11.7206C5.69354 12.0931 6.30646 12.0931 6.67902 11.7206L7.59239 10.8072C7.74862 10.651 8.05508 10.5248 8.2714 10.5248H9.56334C10.0921 10.5248 10.5248 10.0921 10.5248 9.56334V8.27141C10.5248 8.05508 10.651 7.74862 10.8072 7.59239L11.7206 6.67902C12.1112 6.31247 12.1112 5.69955 11.7326 5.32699ZM3.60241 4.20331C3.60241 3.87281 3.87281 3.60241 4.20331 3.60241C4.5338 3.60241 4.80421 3.87281 4.80421 4.20331C4.80421 4.5338 4.53981 4.80421 4.20331 4.80421C3.87281 4.80421 3.60241 4.5338 3.60241 4.20331ZM4.52178 8.12719C4.43165 8.21732 4.31748 8.25939 4.20331 8.25939C4.08914 8.25939 3.97496 8.21732 3.88483 8.12719C3.71057 7.95293 3.71057 7.66449 3.88483 7.49023L7.49023 3.88483C7.66449 3.71057 7.95293 3.71057 8.12719 3.88483C8.30145 4.05909 8.30145 4.34752 8.12719 4.52178L4.52178 8.12719ZM7.80871 8.40961C7.47221 8.40961 7.2018 8.13921 7.2018 7.80871C7.2018 7.47822 7.47221 7.20781 7.8027 7.20781C8.1332 7.20781 8.4036 7.47822 8.4036 7.80871C8.4036 8.13921 8.13921 8.40961 7.80871 8.40961Z" fill="#D85946"/>
</svg>
