<svg width="13" height="12" viewBox="0 0 13 12" fill="#D85946" xmlns="http://www.w3.org/2000/svg">
<path d="M9.06163 12H2.99289C2.74407 12 2.53773 11.7937 2.53773 11.5448C2.53773 11.296 2.74407 11.0897 2.99289 11.0897H9.06163C9.31045 11.0897 9.51679 11.296 9.51679 11.5448C9.51679 11.7937 9.31045 12 9.06163 12Z" fill="#D85946"/>
<path d="M11.0948 1.99813L8.66729 3.7338C8.34564 3.96441 7.88442 3.82483 7.74484 3.45463L6.59784 0.395986C6.40364 -0.131995 5.65719 -0.131995 5.46299 0.395986L4.30994 3.44857C4.17036 3.82483 3.7152 3.96441 3.39356 3.72773L0.96606 1.99207C0.48056 1.65222 -0.162727 2.13165 0.0375412 2.69604L2.56214 9.76615C2.6471 10.0089 2.87771 10.1667 3.1326 10.1667H8.91611C9.17099 10.1667 9.40161 10.0028 9.48657 9.76615L12.0112 2.69604C12.2175 2.13165 11.5742 1.65222 11.0948 1.99813ZM7.54457 7.59961H4.51021C4.26139 7.59961 4.05505 7.39328 4.05505 7.14446C4.05505 6.89564 4.26139 6.6893 4.51021 6.6893H7.54457C7.79339 6.6893 7.99973 6.89564 7.99973 7.14446C7.99973 7.39328 7.79339 7.59961 7.54457 7.59961Z" fill=""/>
</svg>
