<svg width="22" height="22" viewBox="0 0 22 22" fill="none" xmlns="http://www.w3.org/2000/svg">
<g opacity="0.4">
<path d="M11.0196 8.00004V1L9.01956 3.00001" stroke="#292D32" stroke-width="1.92672" stroke-linecap="round" stroke-linejoin="round"/>
<path d="M11.0196 1L13.0196 3.00001" stroke="#292D32" stroke-width="1.92672" stroke-linecap="round" stroke-linejoin="round"/>
</g>
<path opacity="0.4" d="M1 12H5.41002C5.79002 12 6.13003 12.21 6.30003 12.55L7.47003 14.8901C7.81003 15.5701 8.50004 16.0001 9.26007 16.0001H12.7901C13.5501 16.0001 14.2401 15.5701 14.5801 14.8901L15.7501 12.55C15.9201 12.21 16.2701 12 16.6401 12H21.0001" stroke="#292D32" stroke-width="1.92672" stroke-linecap="round" stroke-linejoin="round"/>
<path d="M6.01956 4.12988C2.47954 4.64989 1.01953 6.7299 1.01953 10.9999V14C1.01953 19 3.01954 21 8.01957 21H14.0196C19.0196 21 21.0196 19 21.0196 14V10.9999C21.0196 6.7299 19.5596 4.64989 16.0196 4.12988" stroke="#292D32" stroke-width="1.92672" stroke-linecap="round" stroke-linejoin="round"/>
</svg>
