<svg width="14" height="15" viewBox="0 0 14 15" fill="none" xmlns="http://www.w3.org/2000/svg">
<path d="M11.5583 4.87356C12.9041 4.87356 13.9951 3.78258 13.9951 2.43678C13.9951 1.09098 12.9041 0 11.5583 0C10.2125 0 9.12154 1.09098 9.12154 2.43678C9.12154 3.78258 10.2125 4.87356 11.5583 4.87356Z" fill="#292D32"/>
<path d="M2.43678 4.87356C3.78257 4.87356 4.87356 3.78258 4.87356 2.43678C4.87356 1.09098 3.78257 0 2.43678 0C1.09099 0 0 1.09098 0 2.43678C0 3.78258 1.09099 4.87356 2.43678 4.87356Z" fill="#292D32"/>
<path d="M11.5583 15C12.9041 15 13.9951 13.909 13.9951 12.5632C13.9951 11.2174 12.9041 10.1264 11.5583 10.1264C10.2125 10.1264 9.12154 11.2174 9.12154 12.5632C9.12154 13.909 10.2125 15 11.5583 15Z" fill="#292D32"/>
<path d="M2.43678 15C3.78257 15 4.87356 13.909 4.87356 12.5632C4.87356 11.2174 3.78257 10.1264 2.43678 10.1264C1.09099 10.1264 0 11.2174 0 12.5632C0 13.909 1.09099 15 2.43678 15Z" fill="#292D32"/>
</svg>
