<svg width="15" height="12" viewBox="0 0 15 12" fill="none" xmlns="http://www.w3.org/2000/svg">
<path d="M6.52096 11.4419C3.36745 11.4419 0.8 8.87446 0.8 5.72096C0.8 2.56745 3.36745 0 6.52096 0C9.67446 0 12.2419 2.56745 12.2419 5.72096C12.2419 8.87446 9.67446 11.4419 6.52096 11.4419ZM6.52096 0.837213C3.82513 0.837213 1.63721 3.03071 1.63721 5.72096C1.63721 8.4112 3.82513 10.6047 6.52096 10.6047C9.21678 10.6047 11.4047 8.4112 11.4047 5.72096C11.4047 3.03071 9.21678 0.837213 6.52096 0.837213Z" fill="white"/>
<path d="M13.7017 12C13.4734 12 13.245 11.9279 13.0648 11.7735L10.6613 9.7149C10.3128 9.4164 10.3128 8.92234 10.6613 8.62384C11.0098 8.32534 11.5867 8.32534 11.9352 8.62384L14.3386 10.6825C14.6871 10.9809 14.6871 11.475 14.3386 11.7735C14.1583 11.9279 13.93 12 13.7017 12Z" fill="white"/>
</svg>
