<svg width="13" height="12" viewBox="0 0 13 12" fill="none" xmlns="http://www.w3.org/2000/svg">
<path d="M9.22346 12C8.92557 12 8.54337 11.9044 8.06562 11.6234L6.38506 10.6286C6.21082 10.5274 5.87358 10.5274 5.70497 10.6286L4.0188 11.6234C3.02395 12.2136 2.43941 11.9775 2.17524 11.7864C1.91669 11.5953 1.51201 11.1063 1.77618 9.9822L2.17524 8.25668C2.2202 8.07682 2.13027 7.76769 1.99538 7.63279L0.601471 6.23888C-0.0954839 5.54193 -0.039278 4.94615 0.0562722 4.65386C0.151822 4.36159 0.455335 3.84449 1.42208 3.68149L3.21505 3.3836C3.38367 3.3555 3.62535 3.17564 3.69842 3.02388L4.69327 1.03981C5.1429 0.134894 5.73307 0 6.0422 0C6.35133 0 6.9415 0.134894 7.39115 1.03981L8.38037 3.01826C8.45906 3.17002 8.70075 3.34988 8.86936 3.37798L10.6623 3.67587C11.6347 3.83887 11.9382 4.35597 12.0281 4.64824C12.1181 4.94053 12.1743 5.53631 11.4829 6.23326L10.089 7.63279C9.95414 7.76769 9.86983 8.0712 9.90918 8.25668L10.3082 9.9822C10.5668 11.1063 10.1677 11.5953 9.90918 11.7864C9.76866 11.8876 9.54384 12 9.22346 12ZM6.0422 9.70679C6.31761 9.70679 6.59302 9.77424 6.81222 9.90352L8.49278 10.8984C8.98178 11.1906 9.29091 11.1906 9.40894 11.1063C9.52697 11.022 9.61128 10.7241 9.48763 10.1733L9.08857 8.44778C8.98178 7.98127 9.15601 7.37987 9.49325 7.03701L10.8872 5.6431C11.1626 5.36769 11.2862 5.0979 11.23 4.91242C11.1682 4.72693 10.9096 4.57517 10.5274 4.51334L8.73447 4.21545C8.30168 4.14238 7.82955 3.79391 7.63283 3.40046L6.64361 1.42201C6.46375 1.06229 6.23892 0.848711 6.0422 0.848711C5.84548 0.848711 5.62066 1.06229 5.44642 1.42201L4.45158 3.40046C4.25486 3.79391 3.78273 4.14238 3.34994 4.21545L1.56259 4.51334C1.18039 4.57517 0.921845 4.72693 0.860018 4.91242C0.798192 5.0979 0.927465 5.37331 1.20287 5.6431L2.59678 7.03701C2.93402 7.37425 3.10826 7.98127 3.00147 8.44778L2.6024 10.1733C2.47313 10.7297 2.56306 11.022 2.68109 11.1063C2.79913 11.1906 3.10264 11.185 3.59725 10.8984L5.2778 9.90352C5.49138 9.77424 5.76679 9.70679 6.0422 9.70679Z" fill="#292D32"/>
</svg>
