<svg width="18" height="15" viewBox="0 0 18 15" fill="none" xmlns="http://www.w3.org/2000/svg">
<path d="M7.1512 14.3024C3.20932 14.3024 0 11.0931 0 7.1512C0 3.20932 3.20932 0 7.1512 0C11.0931 0 14.3024 3.20932 14.3024 7.1512C14.3024 11.0931 11.0931 14.3024 7.1512 14.3024ZM7.1512 1.04652C3.78141 1.04652 1.04652 3.78839 1.04652 7.1512C1.04652 10.514 3.78141 13.2559 7.1512 13.2559C10.521 13.2559 13.2559 10.514 13.2559 7.1512C13.2559 3.78839 10.521 1.04652 7.1512 1.04652Z" fill="#292D32"/>
<path d="M16.1271 15C15.8417 15 15.5563 14.9099 15.331 14.7169L12.3267 12.1437C11.8911 11.7705 11.8911 11.153 12.3267 10.7798C12.7623 10.4067 13.4834 10.4067 13.919 10.7798L16.9233 13.3531C17.3589 13.7262 17.3589 14.3438 16.9233 14.7169C16.698 14.9099 16.4126 15 16.1271 15Z" fill="#292D32"/>
</svg>
